<?xml version="1.0" standalone="no"?>
<!DOCTYPE svg PUBLIC "-//W3C//DTD SVG 20010904//EN"
 "http://www.w3.org/TR/2001/REC-SVG-20010904/DTD/svg10.dtd">
<svg version="1.0" xmlns="http://www.w3.org/2000/svg"
 width="596.000000pt" height="596.000000pt" viewBox="0 0 596.000000 596.000000"
 preserveAspectRatio="xMidYMid meet">

<g transform="translate(0.000000,596.000000) scale(0.100000,-0.100000)"
fill="#000000" stroke="none">
<path d="M749 3952 l-22 -19 -1 -657 -1 -658 24 -19 c21 -17 40 -19 175 -19
116 0 157 3 172 14 17 13 19 31 24 233 l5 218 276 3 c257 2 277 4 293 21 15
17 18 40 17 153 -1 191 22 178 -322 178 l-270 0 3 108 3 107 291 5 c269 5 294
6 313 24 19 18 21 30 21 153 0 120 -2 135 -20 153 -19 19 -33 20 -489 20 -441
0 -470 -1 -492 -18z"/>
<path d="M3160 3950 c-20 -20 -20 -33 -20 -675 0 -642 0 -655 20 -675 18 -18
33 -20 174 -20 215 0 200 -17 203 240 1 111 4 204 6 206 2 3 78 -88 167 -201
90 -113 174 -215 188 -226 22 -17 42 -19 213 -19 l189 0 16 25 c9 14 14 34 10
47 -3 13 -116 161 -251 330 -135 169 -245 313 -245 321 0 7 106 143 235 301
129 158 235 292 235 297 0 15 -21 53 -34 61 -6 4 -93 8 -193 8 -175 0 -183 -1
-206 -22 -14 -13 -89 -102 -168 -198 -78 -96 -146 -175 -152 -175 -6 0 -10 70
-11 178 -1 231 11 217 -202 217 -141 0 -156 -2 -174 -20z"/>
<path d="M2071 3941 c-12 -12 -21 -34 -21 -52 0 -29 2 -31 28 -24 15 4 46 11
70 15 55 9 60 15 35 48 -27 36 -83 42 -112 13z"/>
<path d="M2283 3901 c-17 -11 -34 -24 -37 -30 -4 -6 -33 -11 -64 -11 -69 0
-130 -26 -164 -69 -22 -29 -26 -31 -38 -16 -11 13 -11 21 -2 36 10 16 9 19 -3
19 -26 0 -30 -48 -6 -74 12 -13 21 -35 21 -55 0 -35 20 -80 44 -100 10 -9 13
-22 9 -42 -5 -24 -1 -30 21 -39 39 -14 54 -12 60 8 9 28 102 28 117 1 5 -10
18 -19 27 -19 27 0 64 30 58 47 -6 16 42 70 78 88 17 8 21 20 21 55 0 39 -3
45 -22 48 -12 2 -25 12 -28 22 -3 10 -19 32 -36 48 -26 26 -29 32 -19 57 15
39 1 48 -37 26z m43 -162 c10 -17 -13 -36 -27 -22 -12 12 -4 33 11 33 5 0 12
-5 16 -11z"/>
<path d="M1880 3401 c-14 -27 -14 -765 0 -792 10 -17 22 -19 108 -19 63 0 102
4 110 12 17 17 17 789 0 806 -8 8 -47 12 -110 12 -86 0 -98 -2 -108 -19z"/>
<path d="M2262 3408 c-17 -17 -17 -789 0 -806 17 -17 204 -16 215 1 4 6 10 93
13 191 l5 179 124 -187 c80 -121 131 -188 145 -192 12 -3 57 -4 101 -2 l80 3
3 399 c1 286 -1 403 -9 412 -13 16 -185 20 -209 4 -12 -7 -16 -44 -20 -190
l-5 -181 -124 185 c-68 102 -130 187 -138 191 -28 10 -169 5 -181 -7z"/>
<path d="M4400 3401 c-6 -13 -10 -156 -10 -396 0 -240 4 -383 10 -396 10 -17
22 -19 108 -19 63 0 102 4 110 12 17 17 17 789 0 806 -8 8 -47 12 -110 12 -86
0 -98 -2 -108 -19z"/>
<path d="M4782 3408 c-9 -9 -12 -112 -12 -404 0 -328 2 -393 14 -403 11 -9 76
-12 238 -9 217 3 225 4 279 29 72 34 134 96 168 168 25 53 26 64 26 211 0 150
-1 157 -29 217 -44 97 -122 160 -231 189 -67 18 -436 19 -453 2z m418 -213
c52 -27 62 -61 58 -207 l-3 -130 -33 -29 c-31 -27 -37 -29 -122 -29 l-90 0 0
205 0 205 80 0 c53 0 91 -5 110 -15z"/>
<path d="M710 2430 c0 -20 7 -20 2380 -20 2373 0 2380 0 2380 20 0 20 -7 20
-2380 20 -2373 0 -2380 0 -2380 -20z"/>
<path d="M760 2236 c0 -103 18 -126 22 -29 l3 68 44 -67 c24 -38 48 -68 52
-68 5 0 9 41 9 90 0 53 -4 90 -10 90 -6 0 -10 -29 -10 -67 l0 -68 -45 68 c-25
37 -50 67 -55 67 -6 0 -10 -36 -10 -84z"/>
<path d="M1340 2301 c0 -11 -6 -22 -12 -24 -9 -4 -10 -8 -2 -14 6 -4 14 -30
16 -57 6 -46 19 -66 46 -66 6 0 12 5 12 10 0 6 -6 10 -14 10 -32 0 -37 89 -6
97 11 3 20 9 20 14 0 5 -9 9 -20 9 -13 0 -20 7 -20 20 0 11 -4 20 -10 20 -5 0
-10 -9 -10 -19z"/>
<path d="M1830 2310 c0 -5 5 -10 10 -10 6 0 10 5 10 10 0 6 -4 10 -10 10 -5 0
-10 -4 -10 -10z"/>
<path d="M2480 2313 c-1 -16 -2 -149 -1 -161 1 -7 6 -10 11 -7 6 3 10 32 10
63 l1 57 20 -38 c11 -21 26 -37 32 -34 7 2 22 21 34 43 l23 39 0 -68 c0 -43 4
-66 10 -62 6 3 10 44 10 91 0 100 -14 110 -50 34 -13 -27 -26 -50 -30 -50 -4
0 -17 23 -30 50 -21 44 -39 64 -40 43z"/>
<path d="M3696 2305 c-9 -9 -16 -22 -16 -29 0 -18 30 -43 62 -51 38 -10 54
-31 38 -50 -16 -20 -49 -19 -72 2 -25 22 -36 8 -13 -17 22 -24 62 -26 93 -4
31 21 25 54 -13 73 -64 33 -74 41 -69 56 8 21 61 19 73 -2 5 -10 13 -14 17
-10 5 4 3 16 -2 25 -15 23 -77 28 -98 7z"/>
<path d="M4520 2300 c0 -11 -7 -20 -15 -20 -19 0 -20 -16 -1 -23 8 -3 14 -21
14 -47 1 -44 15 -70 38 -70 19 0 18 16 -1 24 -10 4 -15 20 -15 51 0 33 4 45
15 45 8 0 15 5 15 10 0 6 -7 10 -15 10 -8 0 -15 9 -15 20 0 11 -4 20 -10 20
-5 0 -10 -9 -10 -20z"/>
<path d="M4780 2230 c0 -53 4 -90 10 -90 6 0 10 16 10 36 l0 36 44 -35 c59
-49 67 -35 9 17 l-45 41 42 39 c51 46 46 60 -7 17 l-38 -32 -3 31 c-2 16 -7
30 -13 30 -5 0 -9 -40 -9 -90z"/>
<path d="M4970 2310 c0 -5 7 -10 15 -10 8 0 15 5 15 10 0 6 -7 10 -15 10 -8 0
-15 -4 -15 -10z"/>
<path d="M5180 2295 c0 -21 -3 -24 -27 -19 -43 8 -68 -16 -68 -65 0 -52 15
-65 70 -67 l45 -2 0 89 c0 53 -4 89 -10 89 -5 0 -10 -11 -10 -25z m-6 -57 c15
-25 -4 -72 -32 -76 -31 -5 -50 38 -34 74 14 29 48 30 66 2z"/>
<path d="M990 2223 c0 -71 12 -85 66 -80 l39 4 3 58 c2 32 -2 63 -7 68 -8 8
-11 -2 -11 -34 0 -52 -18 -83 -46 -77 -15 2 -20 13 -22 53 -5 75 -22 81 -22 8z"/>
<path d="M1190 2208 c0 -80 18 -92 22 -15 2 43 7 54 26 62 32 14 27 23 -13 22
l-35 -1 0 -68z"/>
<path d="M1480 2227 c0 -66 18 -87 73 -84 l37 2 0 68 c0 43 -4 66 -10 62 -5
-3 -10 -28 -10 -55 0 -45 -2 -50 -26 -56 -34 -9 -44 7 -44 69 0 26 -4 47 -10
47 -5 0 -10 -24 -10 -53z"/>
<path d="M1683 2264 c-8 -21 2 -119 12 -117 6 2 11 26 13 54 3 41 7 52 23 56
10 3 19 9 19 14 0 12 -62 6 -67 -7z"/>
<path d="M1830 2209 c0 -44 4 -68 10 -64 6 3 10 35 10 71 0 36 -4 64 -10 64
-6 0 -10 -30 -10 -71z"/>
<path d="M1944 2271 c-9 -9 -4 -120 6 -126 6 -4 10 10 10 35 0 51 15 80 40 80
28 0 30 -6 39 -113 1 -5 6 -5 12 -1 18 11 5 105 -16 121 -17 11 -80 14 -91 4z"/>
<path d="M2156 2258 c-21 -29 -20 -67 0 -97 14 -19 23 -22 50 -18 35 6 42 -1
22 -21 -17 -17 -49 -15 -63 5 -8 10 -14 12 -19 5 -11 -18 24 -43 58 -40 42 4
57 37 54 117 l-3 64 -42 4 c-34 3 -44 0 -57 -19z m74 -23 c12 -32 -3 -75 -28
-75 -25 0 -42 20 -42 50 0 51 53 70 70 25z"/>
<path d="M2736 2264 c-22 -22 -21 -87 2 -107 42 -39 92 -10 92 53 0 44 -20 70
-55 70 -13 0 -31 -7 -39 -16z m58 -10 c20 -8 21 -67 1 -84 -8 -6 -23 -9 -35
-5 -15 5 -20 15 -20 45 0 43 18 58 54 44z"/>
<path d="M2920 2209 c0 -39 4 -69 10 -69 6 0 10 22 10 49 0 52 16 75 47 69 14
-2 19 -14 21 -53 4 -71 22 -82 22 -14 0 72 -9 83 -65 85 l-45 2 0 -69z"/>
<path d="M3137 2262 c-23 -25 -22 -85 1 -105 24 -21 56 -22 77 -1 21 22 13 27
-18 13 -21 -9 -30 -9 -42 1 -26 21 -17 30 30 30 41 0 45 2 45 23 0 49 -61 74
-93 39z m61 -14 c20 -20 14 -28 -23 -28 -24 0 -35 5 -35 14 0 24 39 33 58 14z"/>
<path d="M3310 2268 c0 -7 10 -33 21 -58 14 -31 18 -55 14 -77 -3 -18 -2 -33
2 -33 13 0 82 169 72 175 -4 3 -18 -17 -30 -46 l-22 -51 -21 51 c-20 48 -36
66 -36 39z"/>
<path d="M3898 2255 c-5 -66 -4 -92 3 -105 10 -18 10 -18 13 41 3 52 11 69 31
69 21 0 35 -33 35 -80 0 -25 4 -39 10 -35 6 3 10 29 10 56 0 35 4 51 15 55 27
11 45 -16 45 -67 0 -27 5 -49 10 -49 6 0 10 24 10 54 0 71 -13 81 -107 81 -66
0 -73 -1 -75 -20z"/>
<path d="M4180 2265 c-17 -21 -7 -29 18 -14 20 13 52 7 52 -10 0 -5 -19 -15
-42 -23 -71 -22 -60 -72 17 -74 l45 -2 0 53 c0 59 -17 85 -54 85 -13 0 -29 -7
-36 -15z m70 -69 c0 -19 -26 -38 -46 -34 -27 5 -28 27 -2 37 33 14 48 13 48
-3z"/>
<path d="M4360 2214 c0 -78 18 -95 22 -22 2 44 7 55 26 63 32 14 27 23 -13 22
l-35 -1 0 -62z"/>
<path d="M4980 2210 c0 -45 4 -69 10 -65 6 3 10 33 10 65 0 32 -4 62 -10 65
-6 4 -10 -20 -10 -65z"/>
<path d="M5302 2268 c-24 -24 -13 -49 28 -65 22 -9 39 -21 37 -27 -5 -16 -46
-19 -63 -5 -21 17 -28 5 -9 -15 21 -20 59 -21 79 0 27 26 15 51 -30 63 -33 9
-46 41 -17 41 11 0 24 -5 31 -12 17 -17 28 -2 12 17 -15 18 -51 20 -68 3z"/>
<path d="M3510 2220 c0 -5 18 -10 40 -10 22 0 40 5 40 10 0 6 -18 10 -40 10
-22 0 -40 -4 -40 -10z"/>
</g>
</svg>
